<svg width="26" height="26" viewBox="0 0 26 26" fill="none" xmlns="http://www.w3.org/2000/svg">
<path d="M8.46875 17.4668H7.66875C7.66875 17.7468 7.81514 18.0064 8.05472 18.1513C8.2943 18.2962 8.5922 18.3053 8.84019 18.1753L8.46875 17.4668ZM1.31719 23.2891C1.31719 23.7309 1.67536 24.0891 2.11719 24.0891C2.55902 24.0891 2.91719 23.7309 2.91719 23.2891H2.11719H1.31719ZM11.9016 15.6672L12.273 16.3758L12.3027 16.3602L12.3311 16.3422L11.9016 15.6672ZM13.5408 18.2665L13.9165 18.9728L13.9412 18.9597L13.9648 18.9449L13.5408 18.2665ZM9.2778 20.5339L8.90212 19.8276L8.87747 19.8407L8.8538 19.8555L9.2778 20.5339ZM6.31745 19.7889L7.01205 19.392L6.31745 19.7889ZM5.98756 17.5992C5.76836 17.2156 5.27967 17.0823 4.89606 17.3015C4.51244 17.5207 4.37917 18.0094 4.59837 18.393L5.29297 17.9961L5.98756 17.5992ZM14.044 16.173L14.73 15.7614L14.044 16.173ZM9.26875 21.1719C9.26875 20.73 8.91058 20.3719 8.46875 20.3719C8.02692 20.3719 7.66875 20.73 7.66875 21.1719H8.46875H9.26875ZM7.66875 23.2891C7.66875 23.7309 8.02692 24.0891 8.46875 24.0891C8.91058 24.0891 9.26875 23.7309 9.26875 23.2891H8.46875H7.66875ZM13.6161 14.9201L13.1866 15.595L14.5364 16.454L14.9659 15.7791L14.291 15.3496L13.6161 14.9201ZM18.671 9.95684C18.9082 9.58409 18.7983 9.08962 18.4256 8.85241C18.0528 8.61521 17.5584 8.72509 17.3212 9.09784L17.9961 9.52734L18.671 9.95684ZM5.55156 4.76367C5.55156 5.2055 5.90973 5.56367 6.35156 5.56367C6.79339 5.56367 7.15156 5.2055 7.15156 4.76367H6.35156H5.55156ZM20.1133 11.9031C19.6715 11.9031 19.3133 12.2613 19.3133 12.7031C19.3133 13.145 19.6715 13.5031 20.1133 13.5031V12.7031V11.9031ZM10.5859 5.55156C10.1441 5.55156 9.78594 5.90973 9.78594 6.35156C9.78594 6.79339 10.1441 7.15156 10.5859 7.15156V6.35156V5.55156ZM19.0547 7.15156C19.4965 7.15156 19.8547 6.79339 19.8547 6.35156C19.8547 5.90973 19.4965 5.55156 19.0547 5.55156V6.35156V7.15156ZM10.5859 8.72734C10.1441 8.72734 9.78594 9.08552 9.78594 9.52734C9.78594 9.96917 10.1441 10.3273 10.5859 10.3273V9.52734V8.72734ZM14.8203 10.3273C15.2621 10.3273 15.6203 9.96917 15.6203 9.52734C15.6203 9.08552 15.2621 8.72734 14.8203 8.72734V9.52734V10.3273ZM7.41016 9.52734H6.61016C6.61016 10.2548 6.02043 10.8445 5.29297 10.8445V11.6445V12.4445C6.90409 12.4445 8.21016 11.1385 8.21016 9.52734H7.41016ZM5.29297 11.6445V10.8445C4.56551 10.8445 3.97578 10.2548 3.97578 9.52734H3.17578H2.37578C2.37578 11.1385 3.68185 12.4445 5.29297 12.4445V11.6445ZM3.17578 9.52734H3.97578C3.97578 8.79988 4.56551 8.21016 5.29297 8.21016V7.41016V6.61016C3.68185 6.61016 2.37578 7.91623 2.37578 9.52734H3.17578ZM5.29297 7.41016V8.21016C6.02043 8.21016 6.61016 8.79988 6.61016 9.52734H7.41016H8.21016C8.21016 7.91623 6.90409 6.61016 5.29297 6.61016V7.41016ZM8.46875 17.4668H9.26875V16.9375H8.46875H7.66875V17.4668H8.46875ZM2.11719 16.9375H1.31719V23.2891H2.11719H2.91719V16.9375H2.11719ZM8.46875 17.4668L8.84019 18.1753L12.273 16.3758L11.9016 15.6672L11.5301 14.9587L8.09731 16.7583L8.46875 17.4668ZM13.5408 18.2665L13.1652 17.5602L8.90212 19.8276L9.2778 20.5339L9.65347 21.2402L13.9165 18.9728L13.5408 18.2665ZM6.31745 19.7889L7.01205 19.392L5.98756 17.5992L5.29297 17.9961L4.59837 18.393L5.62286 20.1859L6.31745 19.7889ZM11.9016 15.6672L12.3311 16.3422C12.6806 16.1197 13.1449 16.2293 13.358 16.5846L14.044 16.173L14.73 15.7614C14.0537 14.6342 12.581 14.2866 11.4721 14.9923L11.9016 15.6672ZM9.2778 20.5339L8.8538 19.8555C8.21963 20.2519 7.38308 20.0413 7.01205 19.392L6.31745 19.7889L5.62286 20.1859C6.44459 21.6239 8.2973 22.0901 9.70179 21.2123L9.2778 20.5339ZM2.11719 16.9375H2.91719C2.91719 15.6254 3.98086 14.5617 5.29297 14.5617V13.7617V12.9617C3.09721 12.9617 1.31719 14.7417 1.31719 16.9375H2.11719ZM14.044 16.173L13.358 16.5846C13.5646 16.9289 13.4573 17.3753 13.1168 17.5881L13.5408 18.2665L13.9648 18.9449C15.0451 18.2697 15.3854 16.8537 14.73 15.7614L14.044 16.173ZM8.46875 16.9375H9.26875C9.26875 14.7417 7.48873 12.9617 5.29297 12.9617V13.7617V14.5617C6.60508 14.5617 7.66875 15.6254 7.66875 16.9375H8.46875ZM8.46875 21.1719H7.66875V23.2891H8.46875H9.26875V21.1719H8.46875ZM14.291 15.3496L14.9659 15.7791L18.671 9.95684L17.9961 9.52734L17.3212 9.09784L13.6161 14.9201L14.291 15.3496ZM6.35156 4.76367H7.15156V4.23438H6.35156H5.55156V4.76367H6.35156ZM8.46875 2.11719V2.91719H21.1719V2.11719V1.31719H8.46875V2.11719ZM23.2891 4.23438H22.4891V10.5859H23.2891H24.0891V4.23438H23.2891ZM21.1719 12.7031V11.9031H20.1133V12.7031V13.5031H21.1719V12.7031ZM23.2891 10.5859H22.4891C22.4891 11.3134 21.8993 11.9031 21.1719 11.9031V12.7031V13.5031C22.783 13.5031 24.0891 12.1971 24.0891 10.5859H23.2891ZM21.1719 2.11719V2.91719C21.8993 2.91719 22.4891 3.50691 22.4891 4.23438H23.2891H24.0891C24.0891 2.62326 22.783 1.31719 21.1719 1.31719V2.11719ZM6.35156 4.23438H7.15156C7.15156 3.50691 7.74129 2.91719 8.46875 2.91719V2.11719V1.31719C6.85763 1.31719 5.55156 2.62326 5.55156 4.23438H6.35156ZM10.5859 6.35156V7.15156H19.0547V6.35156V5.55156H10.5859V6.35156ZM10.5859 9.52734V10.3273H14.8203V9.52734V8.72734H10.5859V9.52734Z" fill="#5B2EC4"/>
</svg>
